<svg width="330" height="18" viewBox="0 0 330 18" fill="none" xmlns="http://www.w3.org/2000/svg">
<line y1="8.5" x2="120" y2="8.5" stroke="#C5C5C5"/>
<line x1="206" y1="8.5" x2="330" y2="8.5" stroke="#CCCCCC"/>
<path d="M164.441 9.01221C164.441 10.0571 164.265 10.9702 163.914 11.7515C163.562 12.5278 163.064 13.1211 162.419 13.5312C161.775 13.9414 161.023 14.1465 160.164 14.1465C159.324 14.1465 158.579 13.9414 157.93 13.5312C157.28 13.1162 156.775 12.5278 156.414 11.7661C156.057 10.9995 155.874 10.1133 155.864 9.10742V8.33838C155.864 7.31299 156.042 6.40723 156.399 5.62109C156.755 4.83496 157.258 4.23438 157.908 3.81934C158.562 3.39941 159.309 3.18945 160.149 3.18945C161.003 3.18945 161.755 3.39697 162.405 3.81201C163.059 4.22217 163.562 4.82031 163.914 5.60645C164.265 6.3877 164.441 7.29834 164.441 8.33838V9.01221ZM163.042 8.32373C163.042 7.05908 162.788 6.08984 162.28 5.41602C161.772 4.7373 161.062 4.39795 160.149 4.39795C159.26 4.39795 158.56 4.7373 158.047 5.41602C157.539 6.08984 157.278 7.02734 157.263 8.22852V9.01221C157.263 10.2378 157.52 11.2021 158.032 11.9053C158.55 12.6035 159.26 12.9526 160.164 12.9526C161.072 12.9526 161.775 12.623 162.273 11.9639C162.771 11.2998 163.027 10.3501 163.042 9.11475V8.32373ZM170.461 9.68604H167.957V14H166.543V3.33594H170.073C171.274 3.33594 172.197 3.60937 172.842 4.15625C173.491 4.70313 173.816 5.49902 173.816 6.54395C173.816 7.20801 173.635 7.78662 173.274 8.27979C172.917 8.77295 172.419 9.1416 171.78 9.38574L174.285 13.9121V14H172.776L170.461 9.68604ZM167.957 8.53613H170.117C170.815 8.53613 171.37 8.35547 171.78 7.99414C172.195 7.63281 172.402 7.14941 172.402 6.54395C172.402 5.88477 172.205 5.37939 171.809 5.02783C171.418 4.67627 170.852 4.49805 170.11 4.49316H167.957V8.53613Z" fill="#0F0E0E" fill-opacity="0.5"/>
</svg>
